<svg width="393" height="852" viewBox="0 0 393 852" fill="none" xmlns="http://www.w3.org/2000/svg">
<rect width="393" height="852" fill="#9747FF"/>
<circle cx="197" cy="426" r="50" fill="#D9D9D9"/>
<path d="M172.332 402.909H179.221L185.854 415.438H186.138L192.772 402.909H199.661L189.05 421.716V432H182.942V421.716L172.332 402.909Z" fill="#9747FF"/>
<path d="M216.045 405.62L210.105 425.112L205.092 423.732L209.951 403.942L216.045 405.62ZM205.186 433.187C204.282 432.938 203.594 432.405 203.121 431.587C202.652 430.761 202.546 429.897 202.804 428.995C203.041 428.098 203.572 427.419 204.396 426.958C205.22 426.498 206.084 426.392 206.988 426.641C207.855 426.879 208.529 427.409 209.011 428.229C209.492 429.049 209.615 429.908 209.377 430.805C209.202 431.405 208.89 431.913 208.442 432.33C208.005 432.74 207.498 433.028 206.922 433.193C206.349 433.35 205.77 433.348 205.186 433.187Z" fill="#9747FF"/>
<path d="M262 426C262 461.899 232.899 491 197 491C161.101 491 132 461.899 132 426C132 390.101 161.101 361 197 361C232.899 361 262 390.101 262 426ZM136.461 426C136.461 459.435 163.565 486.539 197 486.539C230.435 486.539 257.539 459.435 257.539 426C257.539 392.565 230.435 365.461 197 365.461C163.565 365.461 136.461 392.565 136.461 426Z" fill="url(#paint0_angular_1_2)"/>
<defs>
<radialGradient id="paint0_angular_1_2" cx="0" cy="0" r="1" gradientUnits="userSpaceOnUse" gradientTransform="translate(197 426) rotate(90) scale(65)">
<stop stop-color="#D9D9D9"/>
<stop offset="1" stop-color="#D9D9D9" stop-opacity="0"/>
</radialGradient>
</defs>
</svg>
